<?xml version="1.0" encoding="UTF-8"?>
<svg width="144px" height="129px" viewBox="0 0 144 129" version="1.1" xmlns="http://www.w3.org/2000/svg" xmlns:xlink="http://www.w3.org/1999/xlink">
    <title>等待审核</title>
    <defs>
        <polygon id="path-1" points="0 2.001 143.9988 2.001 143.9988 126 0 126"></polygon>
    </defs>
    <g id="页面-1" stroke="none" stroke-width="1" fill="none" fill-rule="evenodd">
        <g id="空白页" transform="translate(-816.000000, -766.000000)">
            <g id="等待审核" transform="translate(816.000000, 766.000000)">
                <g id="编组" transform="translate(0.000000, 0.999900)">
                    <mask id="mask-2" fill="white">
                        <use xlink:href="#path-1"></use>
                    </mask>
                    <g id="Clip-2"></g>
                    <path d="M8.6148,55.539 C8.6148,57.18 6.1548,57.18 6.1548,55.539 L6.1548,50.922 C6.1548,50.244 6.7038,49.692 7.3848,49.692 L11.9988,49.692 C13.6398,49.692 13.6398,52.155 11.9988,52.155 L8.6148,52.155 L8.6148,55.539 Z M120.1548,7.386 L124.3068,7.386 C125.9478,7.386 125.9478,9.846 124.3068,9.846 L120.1548,9.846 L120.1548,14.001 C120.1548,15.642 117.6918,15.642 117.6918,14.001 L117.6918,9.846 L113.5398,9.846 C111.8988,9.846 111.8988,7.386 113.5398,7.386 L117.6918,7.386 L117.6918,3.231 C117.6918,1.59 120.1548,1.59 120.1548,3.231 L120.1548,7.386 Z M6.1548,46.308 C6.1548,44.667 8.6148,44.667 8.6148,46.308 L8.6148,50.922 C8.6148,51.603 8.0628,52.155 7.3848,52.155 L2.7678,52.155 C1.1268,52.155 1.1268,49.692 2.7678,49.692 L6.1548,49.692 L6.1548,46.308 Z M125.5398,92.463 C125.5398,94.101 123.0768,94.101 123.0768,92.463 L123.0768,87.846 C123.0768,87.165 123.6288,86.616 124.3068,86.616 L128.9238,86.616 C130.5648,86.616 130.5648,89.076 128.9238,89.076 L125.5398,89.076 L125.5398,92.463 Z M123.0768,83.229 C123.0768,81.591 125.5398,81.591 125.5398,83.229 L125.5398,87.846 C125.5398,88.527 124.9878,89.076 124.3068,89.076 L119.6928,89.076 C118.0518,89.076 118.0518,86.616 119.6928,86.616 L123.0768,86.616 L123.0768,83.229 Z M54.3078,126 C53.6268,126 53.0778,125.448 53.0778,124.77 C53.0778,124.089 53.6268,123.54 54.3078,123.54 L101.2308,123.54 C101.9118,123.54 102.4608,124.089 102.4608,124.77 C102.4608,125.448 101.9118,126 101.2308,126 L54.3078,126 Z M36.6138,126 C35.9358,126 35.3838,125.448 35.3838,124.77 C35.3838,124.089 35.9358,123.54 36.6138,123.54 L47.3838,123.54 C48.0648,123.54 48.6138,124.089 48.6138,124.77 C48.6138,125.448 48.0648,126 47.3838,126 L36.6138,126 Z M128.9238,114.462 C128.2428,114.462 127.6908,113.91 127.6908,113.229 C127.6908,112.551 128.2428,111.999 128.9238,111.999 L142.7688,111.999 C143.4498,111.999 143.9988,112.551 143.9988,113.229 C143.9988,113.91 143.4498,114.462 142.7688,114.462 L128.9238,114.462 Z M115.0758,114.462 C114.3978,114.462 113.8458,113.91 113.8458,113.229 C113.8458,112.551 114.3978,111.999 115.0758,111.999 L118.9248,111.999 C119.6028,111.999 120.1548,112.551 120.1548,113.229 C120.1548,113.91 119.6028,114.462 118.9248,114.462 L115.0758,114.462 Z M1.2318,114.462 C0.5508,114.462 -0.0012,113.91 -0.0012,113.229 C-0.0012,112.551 0.5508,111.999 1.2318,111.999 L108.9228,111.999 C109.6038,111.999 110.1528,112.551 110.1528,113.229 C110.1528,113.91 109.6038,114.462 108.9228,114.462 L1.2318,114.462 Z" id="Fill-1" fill="#C3CBD6" mask="url(#mask-2)"></path>
                </g>
                <path d="M33.0879,20.889 C32.3619,21.615 31.2759,20.526 31.9989,19.803 L33.6309,18.171 C33.9309,17.871 34.4199,17.871 34.7199,18.171 L36.3519,19.803 C37.0779,20.526 35.9889,21.615 35.2629,20.889 L34.1769,19.803 L33.0879,20.889 Z M35.2629,16.539 C35.9889,15.813 37.0779,16.899 36.3519,17.628 L34.7199,19.26 C34.4199,19.56 33.9309,19.56 33.6309,19.26 L31.9989,17.628 C31.2759,16.899 32.3619,15.813 33.0879,16.539 L34.1769,17.628 L35.2629,16.539 Z M19.5069,101.418 C18.7809,102.141 17.6919,101.055 18.4179,100.329 L20.0499,98.7 C20.3499,98.397 20.8389,98.397 21.1389,98.7 L22.7709,100.329 C23.4939,101.055 22.4049,102.141 21.6819,101.418 L20.5929,100.329 L19.5069,101.418 Z M21.6819,97.068 C22.4049,96.342 23.4939,97.428 22.7709,98.154 L21.1389,99.786 C20.8389,100.086 20.3499,100.086 20.0499,99.786 L18.4179,98.154 C17.6919,97.428 18.7809,96.342 19.5069,97.068 L20.5929,98.154 L21.6819,97.068 Z" id="Fill-3" fill="#C3CBD6"></path>
                <path d="M110.808,84.0342 L110.112,83.0982 C105.819,77.3442 98.922,73.9302 91.578,73.9302 L89.106,73.9302 C85.857,73.9302 82.992,71.8032 82.056,68.6922 C81.132,65.6262 80.235,62.3862 79.986,60.6162 C79.671,58.3512 79.728,53.4012 79.827,49.6902 L82.524,49.6902 C84.108,49.6902 85.569,48.8412 86.382,47.4792 C87.96,44.8272 88.866,41.7102 88.866,38.4162 C88.866,35.3052 85.821,32.3502 84.387,29.7822 C83.604,28.3752 82.104,27.4992 80.487,27.4992 L61.737,27.4992 C60.12,27.4992 58.626,28.3752 57.837,29.7822 C56.409,32.3502 53.364,35.3052 53.364,38.4162 C53.364,41.7102 54.264,44.8272 55.845,47.4792 C56.655,48.8412 58.116,49.6902 59.7,49.6902 L62.394,49.6902 C62.496,53.4012 62.55,58.3512 62.235,60.6162 C61.992,62.3862 61.089,65.6262 60.168,68.6922 C59.229,71.8032 56.364,73.9302 53.115,73.9302 L50.643,73.9302 C43.299,73.9302 36.402,77.3442 32.115,83.0982 L31.413,84.0342 C30.651,85.5072 31.758,87.2442 33.468,87.2442 L35.607,87.2442 L35.607,93.8862 C35.607,95.1132 36.609,96.1182 37.842,96.1182 L104.379,96.1182 C105.615,96.1182 106.614,95.1132 106.614,93.8862 L106.614,87.2442 L108.756,87.2442 C110.46,87.2442 111.57,85.5072 110.808,84.0342" id="Fill-5" fill="#FFFFFF"></path>
                <path d="M50.6427,75.2802 C43.7427,75.2802 37.2207,78.5052 33.1977,83.9052 L32.4927,84.8442 C32.4297,85.0062 32.5527,85.3002 32.6397,85.4472 C32.7207,85.5822 32.9667,85.8942 33.4677,85.8942 L36.9567,85.8942 L36.9567,93.8862 C36.9567,94.3722 37.3527,94.7682 37.8417,94.7682 L104.3817,94.7682 C104.8677,94.7682 105.2637,94.3722 105.2637,93.8862 L105.2637,85.8942 L108.7587,85.8942 C109.2567,85.8942 109.4997,85.5822 109.5807,85.4472 C109.6617,85.3122 109.7727,85.0482 109.6437,84.7332 L109.0287,83.9052 C105.0027,78.5052 98.4777,75.2802 91.5777,75.2802 L89.1057,75.2802 C85.2297,75.2802 81.8787,72.7872 80.7627,69.0822 C79.5807,65.1552 78.8697,62.3682 78.6477,60.8022 C78.3897,58.9302 78.3297,55.1802 78.4767,49.6542 L78.5127,48.3402 L82.5237,48.3402 C83.6187,48.3402 84.6507,47.7432 85.2237,46.7862 C86.7237,44.2662 87.5157,41.3712 87.5157,38.4162 C87.5157,36.6612 86.1717,34.7772 84.8727,32.9532 C84.2547,32.0832 83.6577,31.2432 83.2077,30.4392 C82.6617,29.4582 81.6207,28.8492 80.4867,28.8492 L61.7367,28.8492 C60.6087,28.8492 59.5647,29.4612 59.0157,30.4422 C58.5687,31.2432 57.9717,32.0892 57.3507,32.9622 C56.0547,34.7802 54.7137,36.6642 54.7137,38.4162 C54.7137,41.3772 55.5057,44.2722 57.0057,46.7862 C57.5757,47.7462 58.6077,48.3402 59.7027,48.3402 L63.7077,48.3402 L63.7437,49.6542 C63.8487,53.4342 63.8997,58.4412 63.5727,60.8022 C63.3567,62.3622 62.6667,65.0742 61.4607,69.0822 C60.3417,72.7872 56.9907,75.2802 53.1147,75.2802 L50.6427,75.2802 Z M104.3817,97.4682 L37.8417,97.4682 C35.8647,97.4682 34.2567,95.8602 34.2567,93.8862 L34.2567,88.5942 L33.4677,88.5942 C32.1687,88.5942 30.9987,87.9432 30.3327,86.8482 C29.6907,85.7952 29.6457,84.5112 30.2157,83.4132 L31.0347,82.2882 C35.5617,76.2102 42.8937,72.5802 50.6427,72.5802 L53.1147,72.5802 C55.7877,72.5802 58.1037,70.8612 58.8747,68.3022 C60.0237,64.4832 60.7047,61.8372 60.8967,60.4332 C61.1127,58.8762 61.1757,55.5672 61.0797,51.0402 L59.7027,51.0402 C57.6597,51.0402 55.7397,49.9392 54.6837,48.1692 C52.9377,45.2352 52.0137,41.8632 52.0137,38.4162 C52.0137,35.8032 53.6787,33.4602 55.1487,31.3962 C55.7097,30.6072 56.2527,29.8512 56.6547,29.1252 C57.6897,27.2862 59.6337,26.1492 61.7367,26.1492 L80.4867,26.1492 C82.5957,26.1492 84.5427,27.2892 85.5687,29.1222 C85.9707,29.8452 86.5137,30.6012 87.0717,31.3842 C88.5447,33.4542 90.2157,35.8002 90.2157,38.4162 C90.2157,41.8572 89.2917,45.2292 87.5427,48.1692 C86.4867,49.9392 84.5637,51.0402 82.5237,51.0402 L81.1437,51.0402 C81.0447,55.6422 81.1077,58.8732 81.3237,60.4302 C81.5217,61.8372 82.2207,64.5612 83.3487,68.3022 C84.1167,70.8612 86.4327,72.5802 89.1057,72.5802 L91.5777,72.5802 C99.3267,72.5802 106.6587,76.2102 111.1947,82.2912 L112.0077,83.4132 C112.5747,84.5112 112.5297,85.7952 111.8877,86.8512 C111.2247,87.9432 110.0547,88.5942 108.7587,88.5942 L107.9637,88.5942 L107.9637,93.8862 C107.9637,95.8602 106.3557,97.4682 104.3817,97.4682 L104.3817,97.4682 Z" id="Fill-7" fill="#C3CBD6"></path>
                <path d="M113.8842,84.4779 C113.8842,74.1039 105.4752,65.6949 95.0982,65.6949 C84.7242,65.6949 76.3152,74.1039 76.3152,84.4779 C76.3152,94.8519 84.7242,103.2639 95.0982,103.2639 C105.4752,103.2639 113.8842,94.8519 113.8842,84.4779" id="Fill-9" fill="#FFFFFF"></path>
                <path d="M95.0991,67.0449 C85.4841,67.0449 77.6631,74.8659 77.6631,84.4779 C77.6631,94.0929 85.4841,101.9139 95.0991,101.9139 C104.7141,101.9139 112.5351,94.0929 112.5351,84.4779 C112.5351,74.8659 104.7141,67.0449 95.0991,67.0449 M95.0991,104.6139 C83.9961,104.6139 74.9631,95.5809 74.9631,84.4779 C74.9631,73.3749 83.9961,64.3449 95.0991,64.3449 C106.2021,64.3449 115.2351,73.3749 115.2351,84.4779 C115.2351,95.5809 106.2021,104.6139 95.0991,104.6139" id="Fill-11" fill="#C3CBD6"></path>
                <path d="M103.6626,86.1903 L95.1006,86.1903 C94.1526,86.1903 93.3876,85.4253 93.3876,84.4773 L93.3876,71.6343 C93.3876,70.6893 94.1526,69.9213 95.1006,69.9213 C96.0456,69.9213 96.8106,70.6893 96.8106,71.6343 L96.8106,82.7673 L103.6626,82.7673 C104.6076,82.7673 105.3756,83.5323 105.3756,84.4773 C105.3756,85.4253 104.6076,86.1903 103.6626,86.1903" id="Fill-13" fill="#C3CBD6"></path>
            </g>
        </g>
    </g>
</svg>